<svg 
 xmlns="http://www.w3.org/2000/svg"
 xmlns:xlink="http://www.w3.org/1999/xlink"
 width="16px" height="14px" viewBox='0 0 16 14'>
<path fill-rule="evenodd"  fill="rgb(247, 247, 247)"
 d="M16.000,7.002 C16.000,7.002 16.000,7.003 16.000,7.004 C16.000,7.287 15.885,7.542 15.700,7.724 L15.700,7.724 L9.823,13.724 L9.820,13.721 C9.644,13.893 9.406,13.999 9.143,13.999 C8.601,13.999 8.163,13.552 8.163,13.000 C8.163,12.696 8.296,12.425 8.505,12.241 L12.659,8.000 L0.979,8.000 C0.438,8.000 -0.000,7.552 -0.000,7.000 C-0.000,6.447 0.438,6.000 0.979,6.000 L12.655,6.000 L8.437,1.694 L8.438,1.694 C8.268,1.514 8.163,1.269 8.163,0.999 C8.163,0.447 8.601,-0.001 9.143,-0.001 C9.407,-0.001 9.646,0.107 9.823,0.280 L9.823,0.280 L15.700,6.280 L15.700,6.280 C15.885,6.462 16.000,6.717 16.000,6.999 C16.000,7.000 16.000,7.001 16.000,7.002 Z"/>
</svg>