<svg version="1.1"
	 xmlns="http://www.w3.org/2000/svg" xmlns:xlink="http://www.w3.org/1999/xlink" xmlns:a="http://ns.adobe.com/AdobeSVGViewerExtensions/3.0/"
	 x="0px" y="0px" width="36px" height="36px" viewBox="0 0 36 36" style="enable-background:new 0 0 36 36;" xml:space="preserve">
<defs>
	 	<style type="text/css">
	.st0{fill:#FFFFFF;}
</style>

</defs>
<g>
<path id="Circle_1_" d="M17.5,0h1C28.2,0,36,7.8,36,17.5v1C36,28.2,28.2,36,18.5,36h-1C7.8,36,0,28.2,0,18.5v-1C0,7.8,7.8,0,17.5,0z"/>
<path id="Logo_1_" fill="currentColor" class="st0" d="M17.3,10.4c0.1-0.1,0.2-0.1,0.3-0.1c0.1,0,0.2-0.1,0.3-0.1l0.7-0.1H19l3,0.2h0l-0.3,2.7h0L20,12.8
	h0l-0.2,0l-0.1,0l-0.2,0.1c0,0-0.1,0-0.1,0.1l-0.1,0.1c0,0-0.1,0.1-0.1,0.1c0,0,0,0.1-0.1,0.1c0,0.1,0,0.1,0,0.2c0,0.1,0,0.1,0,0.2
	l0,1.7l2.5,0l-0.4,2.7l-2.1,0.1V26l0,0h-3.3v-7.9H14v-2.7h1.7v0l0,0l0.1-2.9l0-0.2v-0.1l0-0.1c0-0.1,0-0.1,0-0.2
	c0-0.1,0-0.1,0.1-0.1c0-0.1,0.1-0.2,0.1-0.3c0-0.1,0.1-0.2,0.2-0.3c0.1-0.1,0.1-0.2,0.2-0.2c0.1-0.1,0.1-0.2,0.2-0.2v0L17.3,10.4z"
	/>
</g>
</svg>

