<svg 
 xmlns="http://www.w3.org/2000/svg"
 xmlns:xlink="http://www.w3.org/1999/xlink"
 width="156px" height="35px" viewBox='0 0 156 35'>
<defs>
<filter filterUnits="userSpaceOnUse" id="Filter_0" x="0px" y="0px" width="156px" height="35px"  >
    <feOffset in="SourceAlpha" dx="0" dy="1" />
    <feGaussianBlur result="blurOut" stdDeviation="1" />
    <feFlood flood-color="rgb(0, 0, 0)" result="floodOut" />
    <feComposite operator="atop" in="floodOut" in2="blurOut" />
    <feComponentTransfer><feFuncA type="linear" slope="0.3"/></feComponentTransfer>
    <feMerge>
    <feMergeNode/>
    <feMergeNode in="SourceGraphic"/>
  </feMerge>
</filter>
<linearGradient id="PSgrad_0" x1="0%" x2="0%" y1="100%" y2="0%">
  <stop offset="0%" stop-color="rgb(0,0,0)" stop-opacity="0.07" />
  <stop offset="100%" stop-color="rgb(255,255,255)" stop-opacity="0.07" />
</linearGradient>

</defs>
<g filter="url(#Filter_0)">
<path fill-rule="evenodd"  fill="rgb(255, 255, 255)"
 d="M81.608,15.565 C80.309,15.565 79.374,15.989 78.425,16.422 L78.425,26.220 C79.335,26.308 79.854,26.308 80.718,26.308 C83.834,26.308 84.260,24.882 84.260,22.893 L84.260,18.212 C84.260,16.744 83.773,15.565 81.608,15.565 M60.918,15.030 C58.756,15.030 58.263,16.214 58.263,17.682 L58.263,18.506 L63.570,18.506 L63.570,17.682 C63.570,16.214 63.077,15.030 60.918,15.030 M20.837,25.229 C20.837,26.390 21.385,26.992 22.596,26.992 C23.895,26.992 24.663,26.570 25.611,26.135 L25.611,23.812 L22.771,23.812 C21.427,23.812 20.837,24.061 20.837,25.229 M101.735,15.565 C99.570,15.565 98.820,16.744 98.820,18.212 L98.820,23.574 C98.820,25.047 99.570,26.229 101.735,26.229 C103.894,26.229 104.650,25.047 104.650,23.574 L104.650,18.212 C104.650,16.744 103.894,15.565 101.735,15.565 M10.226,31.240 L3.862,31.240 L3.862,15.856 L0.681,15.856 L0.681,10.553 L3.862,10.553 L3.862,7.371 C3.862,3.046 5.658,0.473 10.758,0.473 L15.006,0.473 L15.006,5.776 L12.352,5.776 C10.366,5.776 10.234,6.517 10.234,7.899 L10.226,10.553 L15.036,10.553 L14.473,15.856 L10.226,15.856 L10.226,31.240 ZM31.978,31.280 L26.674,31.280 L26.445,29.939 C24.022,31.280 21.860,31.497 20.435,31.497 C16.544,31.497 14.473,28.902 14.473,25.312 C14.473,21.078 16.889,19.567 21.212,19.567 L25.611,19.567 L25.611,18.652 C25.611,16.490 25.363,15.856 22.035,15.856 L16.593,15.856 L17.125,10.553 L23.073,10.553 C30.377,10.553 31.978,12.858 31.978,18.695 L31.978,31.280 ZM50.016,16.244 C46.715,15.680 45.768,15.555 44.180,15.555 C41.326,15.555 40.465,16.184 40.465,18.602 L40.465,23.180 C40.465,25.599 41.326,26.229 44.180,26.229 C45.768,26.229 46.715,26.104 50.016,25.537 L50.016,30.707 C47.125,31.356 45.241,31.526 43.650,31.526 C36.816,31.526 34.101,27.937 34.101,22.752 L34.101,19.038 C34.101,13.850 36.816,10.255 43.650,10.255 C45.241,10.255 47.125,10.427 50.016,11.075 L50.016,16.244 ZM69.934,22.752 L58.263,22.752 L58.263,23.180 C58.263,25.599 59.126,26.229 61.978,26.229 C64.543,26.229 66.107,26.104 69.401,25.537 L69.401,30.707 C66.224,31.356 64.570,31.526 61.450,31.526 C54.616,31.526 51.899,27.937 51.899,22.752 L51.899,18.506 C51.899,13.971 53.916,10.255 60.918,10.255 C67.921,10.255 69.934,13.927 69.934,18.506 L69.934,22.752 ZM90.624,22.849 C90.624,27.861 89.190,31.516 80.503,31.516 C77.368,31.516 75.525,31.240 72.063,30.707 L72.063,2.065 L78.425,1.006 L78.425,11.024 C79.800,10.513 81.580,10.255 83.200,10.255 C89.565,10.255 90.624,13.105 90.624,17.682 L90.624,22.849 ZM111.020,22.960 C111.020,27.282 109.233,31.475 101.756,31.475 C94.275,31.475 92.455,27.282 92.455,22.960 L92.455,18.786 C92.455,14.462 94.275,10.269 101.756,10.269 C109.233,10.269 111.020,14.462 111.020,18.786 L111.020,22.960 ZM131.400,22.960 C131.400,27.282 129.611,31.475 122.138,31.475 C114.656,31.475 112.835,27.282 112.835,22.960 L112.835,18.786 C112.835,14.462 114.656,10.269 122.138,10.269 C129.611,10.269 131.400,14.462 131.400,18.786 L131.400,22.960 ZM152.319,31.240 L145.420,31.240 L139.588,21.517 L139.588,31.240 L133.224,31.240 L133.224,2.065 L139.588,1.006 L139.588,19.787 L145.420,10.553 L152.319,10.553 L145.950,20.629 L152.319,31.240 ZM122.115,15.565 C119.954,15.565 119.204,16.744 119.204,18.212 L119.204,23.574 C119.204,25.047 119.954,26.229 122.115,26.229 C124.274,26.229 125.038,25.047 125.038,23.574 L125.038,18.212 C125.038,16.744 124.274,15.565 122.115,15.565 "/>
</g>
<path fill="url(#PSgrad_0)"
 d="M81.608,15.565 C80.309,15.565 79.374,15.989 78.425,16.422 L78.425,26.220 C79.335,26.308 79.854,26.308 80.718,26.308 C83.834,26.308 84.260,24.882 84.260,22.893 L84.260,18.212 C84.260,16.744 83.773,15.565 81.608,15.565 M60.918,15.030 C58.756,15.030 58.263,16.214 58.263,17.682 L58.263,18.506 L63.570,18.506 L63.570,17.682 C63.570,16.214 63.077,15.030 60.918,15.030 M20.837,25.229 C20.837,26.390 21.385,26.992 22.596,26.992 C23.895,26.992 24.663,26.570 25.611,26.135 L25.611,23.812 L22.771,23.812 C21.427,23.812 20.837,24.061 20.837,25.229 M101.735,15.565 C99.570,15.565 98.820,16.744 98.820,18.212 L98.820,23.574 C98.820,25.047 99.570,26.229 101.735,26.229 C103.894,26.229 104.650,25.047 104.650,23.574 L104.650,18.212 C104.650,16.744 103.894,15.565 101.735,15.565 M10.226,31.240 L3.862,31.240 L3.862,15.856 L0.681,15.856 L0.681,10.553 L3.862,10.553 L3.862,7.371 C3.862,3.046 5.658,0.473 10.758,0.473 L15.006,0.473 L15.006,5.776 L12.352,5.776 C10.366,5.776 10.234,6.517 10.234,7.899 L10.226,10.553 L15.036,10.553 L14.473,15.856 L10.226,15.856 L10.226,31.240 ZM31.978,31.280 L26.674,31.280 L26.445,29.939 C24.022,31.280 21.860,31.497 20.435,31.497 C16.544,31.497 14.473,28.902 14.473,25.312 C14.473,21.078 16.889,19.567 21.212,19.567 L25.611,19.567 L25.611,18.652 C25.611,16.490 25.363,15.856 22.035,15.856 L16.593,15.856 L17.125,10.553 L23.073,10.553 C30.377,10.553 31.978,12.858 31.978,18.695 L31.978,31.280 ZM50.016,16.244 C46.715,15.680 45.768,15.555 44.180,15.555 C41.326,15.555 40.465,16.184 40.465,18.602 L40.465,23.180 C40.465,25.599 41.326,26.229 44.180,26.229 C45.768,26.229 46.715,26.104 50.016,25.537 L50.016,30.707 C47.125,31.356 45.241,31.526 43.650,31.526 C36.816,31.526 34.101,27.937 34.101,22.752 L34.101,19.038 C34.101,13.850 36.816,10.255 43.650,10.255 C45.241,10.255 47.125,10.427 50.016,11.075 L50.016,16.244 ZM69.934,22.752 L58.263,22.752 L58.263,23.180 C58.263,25.599 59.126,26.229 61.978,26.229 C64.543,26.229 66.107,26.104 69.401,25.537 L69.401,30.707 C66.224,31.356 64.570,31.526 61.450,31.526 C54.616,31.526 51.899,27.937 51.899,22.752 L51.899,18.506 C51.899,13.971 53.916,10.255 60.918,10.255 C67.921,10.255 69.934,13.927 69.934,18.506 L69.934,22.752 ZM90.624,22.849 C90.624,27.861 89.190,31.516 80.503,31.516 C77.368,31.516 75.525,31.240 72.063,30.707 L72.063,2.065 L78.425,1.006 L78.425,11.024 C79.800,10.513 81.580,10.255 83.200,10.255 C89.565,10.255 90.624,13.105 90.624,17.682 L90.624,22.849 ZM111.020,22.960 C111.020,27.282 109.233,31.475 101.756,31.475 C94.275,31.475 92.455,27.282 92.455,22.960 L92.455,18.786 C92.455,14.462 94.275,10.269 101.756,10.269 C109.233,10.269 111.020,14.462 111.020,18.786 L111.020,22.960 ZM131.400,22.960 C131.400,27.282 129.611,31.475 122.138,31.475 C114.656,31.475 112.835,27.282 112.835,22.960 L112.835,18.786 C112.835,14.462 114.656,10.269 122.138,10.269 C129.611,10.269 131.400,14.462 131.400,18.786 L131.400,22.960 ZM152.319,31.240 L145.420,31.240 L139.588,21.517 L139.588,31.240 L133.224,31.240 L133.224,2.065 L139.588,1.006 L139.588,19.787 L145.420,10.553 L152.319,10.553 L145.950,20.629 L152.319,31.240 ZM122.115,15.565 C119.954,15.565 119.204,16.744 119.204,18.212 L119.204,23.574 C119.204,25.047 119.954,26.229 122.115,26.229 C124.274,26.229 125.038,25.047 125.038,23.574 L125.038,18.212 C125.038,16.744 124.274,15.565 122.115,15.565 "/>
</svg>