<svg 
 xmlns="http://www.w3.org/2000/svg"
 xmlns:xlink="http://www.w3.org/1999/xlink"
 width="16px" height="11px" viewBox='0 0 16 11'>
<path fill-rule="evenodd"  fill="rgb(77, 77, 77)"
 d="M10.905,4.935 L15.776,0.216 C15.914,0.352 16.000,0.541 16.000,0.750 L16.000,10.250 C16.000,10.447 15.922,10.625 15.798,10.759 L10.905,4.935 ZM0.249,0.195 C0.382,0.075 0.557,-0.000 0.750,-0.000 L15.250,-0.000 C15.443,-0.000 15.617,0.075 15.750,0.195 L8.000,6.250 L0.249,0.195 ZM0.202,10.759 C0.078,10.625 -0.000,10.447 -0.000,10.250 L-0.000,0.750 C-0.000,0.541 0.086,0.352 0.223,0.216 L5.094,4.935 L0.202,10.759 ZM8.000,7.750 L10.034,5.779 L15.764,10.793 C15.630,10.920 15.449,11.000 15.250,11.000 L0.750,11.000 C0.550,11.000 0.370,10.920 0.236,10.793 L5.966,5.779 L8.000,7.750 Z"/>
</svg>