<svg
 xmlns="http://www.w3.org/2000/svg"
 xmlns:xlink="http://www.w3.org/1999/xlink"
 width="36px" height="36px" viewBox='0 0 36 36'>
<path fill="rgb(0, 0, 0)"
 d="M17.500,-0.001 L18.500,-0.001 C28.165,-0.001 36.000,7.834 36.000,17.499 L36.000,18.499 C36.000,28.164 28.165,35.999 18.500,35.999 L17.500,35.999 C7.835,35.999 -0.000,28.164 -0.000,18.499 L-0.000,17.499 C-0.000,7.834 7.835,-0.001 17.500,-0.001 Z"/>
<path fill="currentColor"
 d="M26.400,25.223 L9.600,25.223 C8.936,25.223 8.400,24.686 8.400,24.023 L8.400,12.816 L13.919,17.908 L9.377,24.101 L15.500,19.366 L17.271,21.001 C17.627,21.268 18.003,21.227 17.989,21.227 C18.333,21.229 18.643,21.049 18.746,20.981 L18.719,21.007 C18.814,20.934 18.799,20.947 18.746,20.981 L20.595,19.271 L26.639,24.094 L22.014,17.957 L27.600,12.788 L27.600,24.023 C27.600,24.686 27.063,25.223 26.400,25.223 ZM8.400,12.023 C8.400,11.360 8.936,10.823 9.600,10.823 L26.400,10.823 C27.063,10.823 27.600,11.360 27.600,12.023 L17.994,18.897 L8.400,12.023 Z"/>
</svg>
