<svg
 xmlns="http://www.w3.org/2000/svg"
 xmlns:xlink="http://www.w3.org/1999/xlink"
 width="36px" height="36px" viewBox = '0 0 36 36'>
<path fill="rgb(0, 0, 0)"
 d="M17.500,-0.001 L18.500,-0.001 C28.165,-0.001 36.000,7.834 36.000,17.499 L36.000,18.499 C36.000,28.164 28.165,35.999 18.500,35.999 L17.500,35.999 C7.835,35.999 -0.000,28.164 -0.000,18.499 L-0.000,17.499 C-0.000,7.834 7.835,-0.001 17.500,-0.001 Z"/>
<path fill="currentColor"
 d="M22.908,9.999 L13.092,9.999 C11.387,9.999 10.000,11.386 10.000,13.091 L10.000,16.357 L10.000,22.908 C10.000,24.613 11.387,25.999 13.092,25.999 L22.908,25.999 C24.613,25.999 26.000,24.613 26.000,22.908 L26.000,16.357 L26.000,13.091 C26.000,11.386 24.613,9.999 22.908,9.999 ZM23.795,11.844 L24.148,11.842 L24.148,12.194 L24.148,14.554 L21.445,14.563 L21.436,11.851 L23.795,11.844 ZM15.716,16.357 C16.229,15.648 17.060,15.183 18.000,15.183 C18.940,15.183 19.771,15.648 20.283,16.357 C20.617,16.820 20.816,17.386 20.816,18.000 C20.816,19.552 19.552,20.815 18.000,20.815 C16.447,20.815 15.184,19.552 15.184,18.000 C15.184,17.386 15.383,16.820 15.716,16.357 ZM24.441,22.908 C24.441,23.753 23.753,24.441 22.908,24.441 L13.092,24.441 C12.246,24.441 11.559,23.753 11.559,22.908 L11.559,16.357 L13.947,16.357 C13.741,16.865 13.625,17.419 13.625,18.000 C13.625,20.411 15.587,22.374 18.000,22.374 C20.412,22.374 22.375,20.411 22.375,18.000 C22.375,17.419 22.258,16.865 22.052,16.357 L24.441,16.357 L24.441,22.908 Z"/>
</svg>
