<svg 
 xmlns="http://www.w3.org/2000/svg"
 xmlns:xlink="http://www.w3.org/1999/xlink"
 width="97px" height="97px" viewBox='0 0 97 97'>
 <path fill-rule="evenodd"  stroke-width="1px" stroke="rgb(255, 255, 255)" fill-opacity="0" opacity="0.702" fill="rgb(0, 0, 0)"
 d="M73.500,3.500 C112.160,3.500 143.500,34.840 143.500,73.500 C143.500,112.160 112.160,143.500 73.500,143.500 C34.840,143.500 3.500,112.160 3.500,73.500 C3.500,34.840 34.840,3.500 73.500,3.500 Z"/>
<path fill-rule="evenodd"  fill="rgb(255, 255, 255)"
 d="M44.999,89.799 C20.257,89.799 0.200,69.741 0.200,44.999 C0.200,20.257 20.257,0.199 44.999,0.199 C69.742,0.199 89.800,20.257 89.800,44.999 C89.800,69.741 69.742,89.799 44.999,89.799 ZM44.999,4.399 C22.577,4.399 4.399,22.576 4.399,44.999 C4.399,67.422 22.577,85.599 44.999,85.599 C67.422,85.599 85.599,67.422 85.599,44.999 C85.599,22.576 67.422,4.399 44.999,4.399 ZM60.440,47.969 L39.278,60.474 C39.271,60.478 39.263,60.482 39.255,60.487 L39.244,60.494 L39.244,60.493 C38.813,60.749 38.311,60.896 37.774,60.896 C36.177,60.896 34.883,59.602 34.883,58.005 L34.883,32.956 C34.883,31.360 36.177,30.066 37.774,30.066 C38.311,30.066 38.813,30.212 39.244,30.468 L39.244,30.467 L39.255,30.474 C39.263,30.479 39.271,30.483 39.278,30.488 L60.440,42.992 L60.440,42.993 C61.289,43.496 61.860,44.421 61.860,45.481 C61.860,46.540 61.289,47.466 60.440,47.969 Z"/>
</svg>